<?xml version="1.0" encoding="UTF-8"?>
<svg width="1766px" height="685px" viewBox="0 0 1766 685" version="1.1" xmlns="http://www.w3.org/2000/svg" xmlns:xlink="http://www.w3.org/1999/xlink">
    <title>hero-pills-bg</title>
    <defs>
        <linearGradient x1="14.2730718%" y1="87.2556585%" x2="85.5950254%" y2="12.6159012%" id="linearGradient-1">
            <stop stop-color="#F0F0F0" stop-opacity="0" offset="0%"></stop>
            <stop stop-color="#FFFFFF" stop-opacity="0.76" offset="100%"></stop>
        </linearGradient>
        <linearGradient x1="14.8911284%" y1="86.9499852%" x2="85.2326605%" y2="13.2345123%" id="linearGradient-2">
            <stop stop-color="#F0F0F0" stop-opacity="0" offset="0%"></stop>
            <stop stop-color="#FFFFFF" stop-opacity="0.76" offset="100%"></stop>
        </linearGradient>
        <linearGradient x1="14.7627281%" y1="86.9776495%" x2="85.2798722%" y2="13.1352053%" id="linearGradient-3">
            <stop stop-color="#F0F0F0" stop-opacity="0" offset="0%"></stop>
            <stop stop-color="#FFFFFF" stop-opacity="0.76" offset="100%"></stop>
        </linearGradient>
    </defs>
    <g id="Page-1" stroke="none" stroke-width="1" fill="none" fill-rule="evenodd">
        <g id="Wochit-Home" transform="translate(-208.000000, 50.000000)">
            <g id="hero-pills-bg" transform="translate(208.000000, -50.000000)">
                <path d="M1391.48,318.181 L1358.647,352.3 C1342.2,369.39 1314.624,369.689 1297.365,352.964 L1287.52,343.424 C1270.261,326.699 1269.596,299.033 1286.042,281.943 L1318.876,247.825 C1335.322,230.735 1362.899,230.436 1380.158,247.161 L1390,256.7 C1407.259,273.425 1407.923,301.091 1391.477,318.181" id="Fill-1" fill-opacity="0.472" fill="#DDDDDD" opacity="0.399"></path>
                <path d="M1759.15,275.532 L1742.167,293.179 C1733.80007,302.015187 1719.85692,302.403641 1711.011,294.047 L1706.089,289.277 C1697.459,280.914 1697.359,266.84 1705.865,258.001 L1722.848,240.353 C1731.21556,231.516983 1745.15902,231.128981 1754.005,239.486 L1758.927,244.256 C1767.557,252.618 1767.657,266.692 1759.15,275.532" id="Fill-1-Copy-7" fill-opacity="0.472" fill="#DDDDDD" opacity="0.744"></path>
                <path d="M260.884,637.024 L228.05,671.142 C211.604,688.232 184.028,688.531 166.768,671.806 L156.923,662.266 C139.665,645.541 139,617.875 155.446,600.785 L188.279,566.667 C204.726,549.577 232.302,549.278 249.561,566.003 L259.406,575.543 C276.665,592.268 277.33,619.934 260.884,637.024" id="Fill-1-2" fill-opacity="0.472" fill="#DDDDDD" opacity="0.399"></path>
                <path d="M373.083,103.154 L331.443,146.423 C310.586,168.097 276.211,169.055 255.052,148.551 L242.983,136.851 C221.825,116.351 221.583,81.84 242.435,60.166 L284.075,16.9 C304.932,-4.773 339.309,-5.731 360.467,14.773 L372.536,26.473 C393.695,46.973 393.936,81.485 373.083,103.158" id="Fill-1-Copy-8" fill="url(#linearGradient-1)" opacity="0.267"></path>
                <path d="M466.963,478.18 L443.263,502.88 C431.221304,515.246787 411.435947,515.515366 399.063,503.48 L391.963,496.58 C379.564234,484.519608 379.163153,464.732931 391.063,452.18 L414.763,427.48 C420.513643,421.52002 428.406767,418.104067 436.687985,417.991397 C444.969203,417.878728 452.952339,421.078677 458.863,426.88 L465.963,433.78 C478.43816,445.791715 478.884717,465.618806 466.963,478.18" id="Fill-1-3" fill="url(#linearGradient-2)" opacity="0.265"></path>
                <path d="M884.063,256.88 L872.163,269.28 C866.14227,275.463668 856.249363,275.597961 850.063,269.58 L846.563,266.18 C840.352517,260.146918 840.173886,250.232895 846.163,243.98 L858.063,231.58 C864.08373,225.396332 873.976637,225.262039 880.163,231.28 L883.663,234.68 C889.871859,240.713786 890.050466,250.62646 884.063,256.88" id="Fill-1-Copy-6" fill-opacity="0.2" fill="#FFFFFF"></path>
                <path d="M1002.863,501.98 L990.963,514.38 C984.94227,520.563668 975.049363,520.697961 968.863,514.68 L965.363,511.28 C959.152517,505.246918 958.973886,495.332895 964.963,489.08 L976.863,476.68 C982.88373,470.496332 992.776637,470.362039 998.963,476.38 L1002.463,479.78 C1008.57264,485.856433 1008.74978,495.687415 1002.863,501.98" id="Fill-1-Copy-7-2" fill-opacity="0.2" fill="#FFFFFF" opacity="0.168"></path>
                <path d="M659.563,195.48 L635.863,220.18 C630.112357,226.13998 622.219233,229.555933 613.938015,229.668603 C605.656797,229.781272 597.673661,226.581323 591.763,220.78 L584.663,213.88 C572.264234,201.819608 571.863153,182.032931 583.763,169.48 L607.463,144.98 C613.213643,139.02002 621.106767,135.604067 629.387985,135.491397 C637.669203,135.378728 645.652339,138.578677 651.563,144.38 L658.663,151.28 C671.061265,163.261347 671.463263,183.003887 659.563,195.48" id="Fill-1-Copy-5" fill="url(#linearGradient-3)" opacity="0.187"></path>
                <path d="M102.788,117.578 L74.029,147.462 C59.629,162.431 35.47,162.693 20.352,148.043 L11.729,139.687 C-3.388,125.038 -3.971,100.805 10.435,85.836 L39.194,55.952 C53.594,40.983 77.754,40.721 92.871,55.371 L101.493,63.727 C116.611,78.376 117.193,102.609 102.793,117.578" id="Fill-1-4" fill-opacity="0.472" fill="#DDDDDD" opacity="0.399"></path>
            </g>
        </g>
    </g>
</svg>